<svg xmlns="http://www.w3.org/2000/svg" xmlns:xlink="http://www.w3.org/1999/xlink" width="150" zoomAndPan="magnify" viewBox="0 0 112.5 89.999999" height="120" preserveAspectRatio="xMidYMid meet" version="1.0"><defs><clipPath id="5c518cac30"><path d="M 14.558594 3.558594 L 97.441406 3.558594 L 97.441406 86.441406 L 14.558594 86.441406 Z M 14.558594 3.558594 " clip-rule="nonzero"/></clipPath><clipPath id="f87ec4ea5f"><path d="M 56 3.558594 C 33.113281 3.558594 14.558594 22.113281 14.558594 45 C 14.558594 67.886719 33.113281 86.441406 56 86.441406 C 78.886719 86.441406 97.441406 67.886719 97.441406 45 C 97.441406 22.113281 78.886719 3.558594 56 3.558594 Z M 56 3.558594 " clip-rule="nonzero"/></clipPath><clipPath id="06e345115c"><path d="M 40 17.101562 L 60 17.101562 L 60 67 L 40 67 Z M 40 17.101562 " clip-rule="nonzero"/></clipPath></defs><g clip-path="url(#5c518cac30)"><g clip-path="url(#f87ec4ea5f)"><path fill="#6ea283" d="M 14.558594 3.558594 L 97.441406 3.558594 L 97.441406 86.441406 L 14.558594 86.441406 Z M 14.558594 3.558594 " fill-opacity="1" fill-rule="nonzero"/><path fill="#fff5f5" d="M 54.769531 4.195312 L 54.144531 4.214844 L 54.097656 2.984375 L 54.722656 2.960938 Z M 53.542969 4.25 L 52.921875 4.289062 L 52.839844 3.058594 L 53.457031 3.019531 Z M 52.324219 4.339844 L 51.707031 4.398438 L 51.589844 3.171875 L 52.203125 3.113281 Z M 51.117188 4.464844 L 50.507812 4.542969 L 50.351562 3.320312 L 50.960938 3.242188 Z M 49.917969 4.625 L 49.316406 4.71875 L 49.125 3.503906 L 49.726562 3.40625 Z M 48.734375 4.820312 L 48.136719 4.933594 L 47.910156 3.722656 L 48.507812 3.609375 Z M 47.550781 5.050781 L 46.941406 5.183594 L 46.679688 3.980469 L 47.289062 3.847656 Z M 46.355469 5.320312 L 45.753906 5.472656 L 45.453125 4.277344 L 46.054688 4.125 Z M 45.171875 5.625 L 44.578125 5.796875 L 44.242188 4.609375 L 44.835938 4.441406 Z M 44.003906 5.964844 L 43.414062 6.152344 L 43.042969 4.976562 L 43.632812 4.792969 Z M 42.847656 6.339844 L 42.269531 6.542969 L 41.863281 5.378906 L 42.441406 5.175781 Z M 41.710938 6.746094 L 41.136719 6.964844 L 40.699219 5.8125 L 41.269531 5.59375 Z M 40.585938 7.183594 L 40.019531 7.421875 L 39.546875 6.285156 L 40.113281 6.046875 Z M 39.46875 7.660156 L 38.902344 7.917969 L 38.394531 6.792969 L 38.960938 6.539062 Z M 38.359375 8.171875 L 37.804688 8.445312 L 37.265625 7.335938 L 37.820312 7.066406 Z M 37.269531 8.714844 L 36.726562 9.003906 L 36.152344 7.914062 L 36.695312 7.625 Z M 36.199219 9.289062 L 35.664062 9.59375 L 35.058594 8.519531 L 35.59375 8.21875 Z M 35.148438 9.894531 L 34.621094 10.214844 L 33.984375 9.160156 L 34.511719 8.839844 Z M 34.117188 10.53125 L 33.601562 10.863281 L 32.929688 9.828125 L 33.445312 9.496094 Z M 33.105469 11.195312 L 32.59375 11.546875 L 31.894531 10.53125 L 32.40625 10.179688 Z M 32.105469 11.894531 L 31.609375 12.261719 L 30.878906 11.265625 L 31.378906 10.902344 Z M 31.132812 12.621094 L 30.644531 13 L 29.886719 12.03125 L 30.375 11.652344 Z M 30.175781 13.378906 C 30.019531 13.507812 29.863281 13.636719 29.707031 13.769531 L 28.914062 12.824219 C 29.074219 12.691406 29.234375 12.558594 29.394531 12.425781 Z M 29.246094 14.164062 C 29.09375 14.296875 28.941406 14.429688 28.792969 14.566406 L 27.96875 13.644531 C 28.125 13.507812 28.28125 13.371094 28.4375 13.234375 Z M 28.339844 14.972656 C 28.191406 15.109375 28.046875 15.25 27.898438 15.386719 L 27.050781 14.492188 C 27.199219 14.351562 27.351562 14.207031 27.507812 14.066406 Z M 27.460938 15.808594 C 27.316406 15.949219 27.171875 16.09375 27.03125 16.238281 L 26.15625 15.367188 C 26.300781 15.21875 26.449219 15.074219 26.601562 14.929688 Z M 26.605469 16.671875 C 26.464844 16.816406 26.324219 16.964844 26.1875 17.109375 L 25.289062 16.269531 C 25.429688 16.117188 25.574219 15.964844 25.71875 15.816406 Z M 25.777344 17.558594 C 25.640625 17.707031 25.503906 17.859375 25.371094 18.007812 L 24.445312 17.195312 C 24.585938 17.039062 24.722656 16.882812 24.863281 16.730469 Z M 24.972656 18.46875 C 24.839844 18.621094 24.710938 18.777344 24.582031 18.933594 L 23.632812 18.144531 C 23.765625 17.984375 23.902344 17.824219 24.035156 17.667969 Z M 24.199219 19.398438 L 23.816406 19.882812 L 22.851562 19.117188 L 23.234375 18.632812 Z M 23.449219 20.355469 L 23.082031 20.851562 L 22.09375 20.113281 L 22.460938 19.621094 Z M 22.730469 21.335938 L 22.375 21.84375 L 21.367188 21.136719 L 21.71875 20.628906 Z M 22.039062 22.339844 L 21.699219 22.851562 L 20.671875 22.175781 L 21.007812 21.660156 Z M 21.378906 23.355469 L 21.058594 23.878906 L 20.007812 23.230469 L 20.332031 22.707031 Z M 20.753906 24.390625 L 20.445312 24.925781 L 19.378906 24.308594 L 19.683594 23.777344 Z M 20.152344 25.449219 L 19.863281 25.992188 L 18.777344 25.410156 L 19.070312 24.863281 Z M 19.585938 26.523438 L 19.3125 27.078125 L 18.207031 26.527344 L 18.484375 25.972656 Z M 19.050781 27.617188 L 18.792969 28.179688 L 17.671875 27.664062 L 17.933594 27.101562 Z M 18.546875 28.730469 L 18.304688 29.296875 L 17.171875 28.816406 L 17.414062 28.246094 Z M 18.082031 29.847656 L 17.859375 30.417969 L 16.710938 29.96875 L 16.933594 29.398438 Z M 17.648438 30.972656 L 17.441406 31.550781 L 16.28125 31.136719 L 16.488281 30.558594 Z M 17.25 32.117188 L 17.0625 32.703125 L 15.890625 32.324219 L 16.078125 31.738281 Z M 16.886719 33.273438 L 16.710938 33.867188 L 15.53125 33.523438 L 15.703125 32.929688 Z M 16.554688 34.445312 L 16.398438 35.046875 L 15.207031 34.738281 L 15.359375 34.136719 Z M 16.253906 35.632812 L 16.117188 36.242188 L 14.917969 35.96875 L 15.054688 35.359375 Z M 15.992188 36.832031 L 15.878906 37.425781 L 14.667969 37.191406 L 14.785156 36.59375 Z M 15.773438 38.007812 L 15.671875 38.609375 L 14.457031 38.410156 L 14.558594 37.808594 Z M 15.585938 39.195312 L 15.503906 39.804688 L 14.28125 39.640625 L 14.363281 39.03125 Z M 15.433594 40.394531 L 15.367188 41.007812 L 14.144531 40.882812 L 14.207031 40.269531 Z M 15.316406 41.605469 L 15.269531 42.222656 L 14.039062 42.132812 L 14.085938 41.515625 Z M 15.234375 42.828125 L 15.207031 43.449219 L 13.972656 43.394531 L 14.003906 42.769531 Z M 15.1875 44.054688 L 15.175781 44.683594 L 13.945312 44.664062 L 13.953125 44.039062 Z M 15.175781 45.296875 L 15.1875 45.921875 L 13.953125 45.941406 L 13.945312 45.3125 Z M 15.203125 46.53125 L 15.230469 47.152344 L 14 47.207031 L 13.972656 46.585938 Z M 15.269531 47.753906 L 15.3125 48.375 L 14.085938 48.464844 L 14.039062 47.847656 Z M 15.367188 48.972656 L 15.429688 49.582031 L 14.207031 49.710938 L 14.140625 49.097656 Z M 15.5 50.175781 L 15.582031 50.785156 L 14.363281 50.949219 L 14.28125 50.339844 Z M 15.671875 51.371094 L 15.769531 51.972656 L 14.554688 52.171875 L 14.453125 51.570312 Z M 15.875 52.554688 L 15.988281 53.148438 L 14.78125 53.382812 L 14.664062 52.789062 Z M 16.113281 53.738281 L 16.25 54.347656 L 15.050781 54.617188 L 14.910156 54.011719 Z M 16.394531 54.933594 L 16.546875 55.535156 L 15.355469 55.839844 L 15.199219 55.242188 Z M 16.707031 56.113281 L 16.878906 56.707031 L 15.695312 57.050781 L 15.523438 56.457031 Z M 17.054688 57.277344 L 17.246094 57.863281 L 16.070312 58.242188 L 15.882812 57.65625 Z M 17.4375 58.429688 L 17.640625 59.007812 L 16.480469 59.421875 L 16.277344 58.84375 Z M 17.851562 59.5625 L 18.074219 60.132812 L 16.925781 60.582031 L 16.703125 60.011719 Z M 18.296875 60.683594 L 18.539062 61.25 L 17.40625 61.734375 L 17.164062 61.167969 Z M 18.78125 61.800781 L 19.042969 62.363281 L 17.921875 62.878906 L 17.664062 62.316406 Z M 19.300781 62.90625 L 19.578125 63.457031 L 18.476562 64.007812 L 18.199219 63.453125 Z M 19.851562 63.992188 L 20.144531 64.535156 L 19.058594 65.117188 L 18.765625 64.574219 Z M 20.433594 65.058594 L 20.742188 65.589844 L 19.671875 66.207031 L 19.367188 65.671875 Z M 21.046875 66.105469 L 21.371094 66.628906 L 20.320312 67.273438 L 19.996094 66.75 Z M 21.691406 67.132812 L 22.027344 67.644531 L 20.996094 68.320312 L 20.660156 67.808594 Z M 22.363281 68.140625 L 22.71875 68.644531 L 21.707031 69.351562 L 21.355469 68.847656 Z M 23.070312 69.132812 L 23.4375 69.625 L 22.449219 70.363281 L 22.082031 69.867188 Z M 23.800781 70.101562 L 24.1875 70.585938 L 23.21875 71.351562 L 22.835938 70.867188 Z M 24.566406 71.050781 C 24.695312 71.207031 24.828125 71.363281 24.960938 71.515625 L 24.023438 72.316406 C 23.886719 72.160156 23.753906 72 23.621094 71.839844 Z M 25.355469 71.976562 C 25.492188 72.128906 25.625 72.277344 25.761719 72.429688 L 24.851562 73.257812 C 24.710938 73.101562 24.570312 72.945312 24.433594 72.789062 Z M 26.171875 72.875 C 26.3125 73.023438 26.449219 73.167969 26.589844 73.316406 L 25.703125 74.167969 C 25.558594 74.019531 25.414062 73.867188 25.273438 73.714844 Z M 27.015625 73.75 C 27.160156 73.894531 27.300781 74.035156 27.445312 74.175781 L 26.585938 75.058594 C 26.4375 74.910156 26.289062 74.765625 26.140625 74.617188 Z M 27.882812 74.597656 C 28.03125 74.738281 28.179688 74.875 28.328125 75.011719 L 27.492188 75.917969 C 27.339844 75.777344 27.1875 75.636719 27.035156 75.492188 Z M 28.777344 75.421875 C 28.925781 75.558594 29.078125 75.691406 29.230469 75.824219 L 28.421875 76.753906 C 28.265625 76.617188 28.109375 76.480469 27.953125 76.339844 Z M 29.691406 76.21875 C 29.847656 76.351562 30.003906 76.480469 30.160156 76.605469 L 29.378906 77.5625 C 29.21875 77.429688 29.058594 77.296875 28.898438 77.160156 Z M 30.628906 76.984375 L 31.117188 77.367188 L 30.355469 78.335938 L 29.871094 77.957031 Z M 31.59375 77.726562 L 32.089844 78.09375 L 31.359375 79.085938 L 30.863281 78.71875 Z M 32.578125 78.441406 L 33.085938 78.792969 L 32.386719 79.808594 L 31.878906 79.457031 Z M 33.582031 79.125 L 34.097656 79.457031 L 33.429688 80.492188 L 32.914062 80.160156 Z M 34.605469 79.777344 L 35.128906 80.09375 L 34.492188 81.148438 L 33.964844 80.828125 Z M 35.644531 80.394531 L 36.183594 80.699219 L 35.574219 81.773438 L 35.039062 81.46875 Z M 36.707031 80.988281 L 37.253906 81.273438 L 36.679688 82.363281 L 36.132812 82.078125 Z M 37.789062 81.546875 L 38.34375 81.820312 L 37.800781 82.925781 L 37.246094 82.652344 Z M 38.886719 82.074219 L 39.449219 82.332031 L 38.941406 83.453125 L 38.378906 83.195312 Z M 40.003906 82.570312 L 40.566406 82.808594 L 40.09375 83.945312 L 39.527344 83.707031 Z M 41.117188 83.027344 L 41.691406 83.246094 L 41.25 84.398438 L 40.679688 84.179688 Z M 42.25 83.449219 L 42.828125 83.652344 L 42.421875 84.816406 L 41.84375 84.613281 Z M 43.394531 83.84375 L 43.984375 84.027344 L 43.613281 85.203125 L 43.023438 85.015625 Z M 44.558594 84.199219 L 45.152344 84.367188 L 44.816406 85.554688 L 44.222656 85.386719 Z M 45.734375 84.523438 L 46.335938 84.675781 L 46.035156 85.867188 L 45.433594 85.71875 Z M 46.921875 84.8125 L 47.53125 84.945312 L 47.269531 86.148438 L 46.660156 86.015625 Z M 48.117188 85.0625 L 48.714844 85.175781 L 48.484375 86.386719 L 47.886719 86.273438 Z M 49.296875 85.277344 L 49.898438 85.371094 L 49.707031 86.589844 L 49.105469 86.492188 Z M 50.488281 85.457031 L 51.09375 85.53125 L 50.941406 86.753906 L 50.332031 86.679688 Z M 51.6875 85.601562 L 52.304688 85.660156 L 52.183594 86.886719 L 51.570312 86.824219 Z M 52.902344 85.707031 L 53.519531 85.75 L 53.4375 86.980469 L 52.820312 86.9375 Z M 54.125 85.78125 L 54.75 85.804688 L 54.703125 87.039062 L 54.078125 87.011719 Z M 55.355469 85.820312 L 55.984375 85.824219 L 55.976562 87.058594 L 55.347656 87.050781 Z M 56.59375 85.820312 L 57.222656 85.808594 L 57.25 87.039062 L 56.621094 87.050781 Z M 57.828125 85.785156 L 58.449219 85.753906 L 58.511719 86.984375 L 57.890625 87.015625 Z M 59.050781 85.710938 L 59.667969 85.664062 L 59.769531 86.890625 L 59.152344 86.941406 Z M 60.265625 85.605469 L 60.875 85.535156 L 61.011719 86.761719 L 60.402344 86.828125 Z M 61.464844 85.460938 L 62.074219 85.375 L 62.246094 86.597656 L 61.640625 86.683594 Z M 62.660156 85.285156 L 63.257812 85.183594 L 63.46875 86.394531 L 62.867188 86.5 Z M 63.839844 85.074219 L 64.4375 84.953125 L 64.683594 86.160156 L 64.082031 86.28125 Z M 65.03125 84.824219 L 65.636719 84.679688 L 65.917969 85.882812 L 65.308594 86.023438 Z M 66.21875 84.535156 L 66.820312 84.375 L 67.136719 85.566406 L 66.535156 85.726562 Z M 67.398438 84.214844 L 67.988281 84.035156 L 68.339844 85.21875 L 67.75 85.394531 Z M 68.558594 83.855469 L 69.144531 83.664062 L 69.53125 84.832031 L 68.945312 85.027344 Z M 69.707031 83.46875 L 70.28125 83.257812 L 70.703125 84.414062 L 70.128906 84.625 Z M 70.835938 83.046875 L 71.40625 82.820312 L 71.863281 83.964844 L 71.292969 84.191406 Z M 71.953125 82.589844 L 72.523438 82.34375 L 73.015625 83.472656 L 72.445312 83.71875 Z M 73.070312 82.097656 L 73.632812 81.832031 L 74.15625 82.945312 L 73.59375 83.210938 Z M 74.171875 81.570312 L 74.722656 81.289062 L 75.277344 82.386719 L 74.726562 82.667969 Z M 75.25 81.011719 L 75.792969 80.714844 L 76.382812 81.796875 L 75.839844 82.09375 Z M 76.3125 80.421875 L 76.84375 80.109375 L 77.464844 81.175781 L 76.933594 81.484375 Z M 77.355469 79.800781 L 77.875 79.476562 L 78.53125 80.519531 L 78.007812 80.847656 Z M 78.378906 79.152344 L 78.886719 78.8125 L 79.574219 79.835938 L 79.0625 80.175781 Z M 79.382812 78.46875 L 79.886719 78.113281 L 80.601562 79.117188 L 80.097656 79.472656 Z M 80.371094 77.757812 L 80.863281 77.386719 L 81.605469 78.367188 L 81.113281 78.738281 Z M 81.335938 77.015625 C 81.496094 76.886719 81.652344 76.761719 81.8125 76.632812 L 82.589844 77.585938 C 82.429688 77.71875 82.265625 77.851562 82.101562 77.980469 Z M 82.277344 76.246094 C 82.433594 76.113281 82.585938 75.984375 82.738281 75.851562 L 83.546875 76.78125 C 83.390625 76.917969 83.230469 77.054688 83.070312 77.1875 Z M 83.195312 75.449219 C 83.347656 75.3125 83.496094 75.179688 83.644531 75.039062 L 84.480469 75.949219 C 84.328125 76.089844 84.171875 76.230469 84.015625 76.367188 Z M 84.089844 74.625 C 84.238281 74.488281 84.382812 74.347656 84.527344 74.207031 L 85.386719 75.085938 C 85.238281 75.234375 85.089844 75.378906 84.9375 75.519531 Z M 84.957031 73.777344 C 85.101562 73.632812 85.242188 73.488281 85.382812 73.34375 L 86.269531 74.199219 C 86.125 74.347656 85.980469 74.5 85.832031 74.644531 Z M 85.800781 72.902344 C 85.941406 72.757812 86.078125 72.609375 86.214844 72.457031 L 87.125 73.285156 C 86.984375 73.441406 86.84375 73.59375 86.699219 73.746094 Z M 86.617188 72.003906 C 86.753906 71.855469 86.886719 71.699219 87.015625 71.546875 L 87.953125 72.347656 C 87.816406 72.507812 87.679688 72.664062 87.542969 72.820312 Z M 87.410156 71.082031 C 87.539062 70.925781 87.667969 70.769531 87.792969 70.613281 L 88.753906 71.386719 C 88.621094 71.546875 88.488281 71.710938 88.355469 71.871094 Z M 88.167969 70.140625 L 88.546875 69.652344 L 89.523438 70.402344 L 89.144531 70.890625 Z M 88.90625 69.171875 L 89.265625 68.671875 L 90.265625 69.394531 L 89.902344 69.894531 Z M 89.609375 68.179688 L 89.957031 67.671875 L 90.976562 68.363281 L 90.628906 68.875 Z M 90.285156 67.171875 L 90.617188 66.65625 L 91.65625 67.316406 L 91.324219 67.835938 Z M 90.929688 66.144531 L 91.246094 65.617188 L 92.304688 66.25 L 91.988281 66.777344 Z M 91.542969 65.101562 L 91.84375 64.5625 L 92.917969 65.160156 L 92.621094 65.699219 Z M 92.125 64.035156 L 92.410156 63.488281 L 93.503906 64.054688 L 93.21875 64.601562 Z M 92.679688 62.949219 L 92.945312 62.390625 L 94.058594 62.925781 L 93.789062 63.484375 Z M 93.199219 61.847656 L 93.449219 61.28125 L 94.578125 61.78125 L 94.324219 62.347656 Z M 93.6875 60.730469 L 93.917969 60.164062 L 95.058594 60.628906 L 94.828125 61.195312 Z M 94.132812 59.609375 L 94.347656 59.035156 L 95.503906 59.46875 L 95.289062 60.042969 Z M 94.550781 58.476562 L 94.75 57.894531 L 95.914062 58.292969 L 95.714844 58.875 Z M 94.933594 57.324219 L 95.113281 56.734375 L 96.292969 57.097656 L 96.109375 57.6875 Z M 95.28125 56.160156 L 95.445312 55.5625 L 96.632812 55.890625 L 96.46875 56.488281 Z M 95.597656 54.980469 L 95.742188 54.378906 L 96.941406 54.667969 L 96.792969 55.273438 Z M 95.878906 53.789062 L 96.007812 53.179688 L 97.210938 53.433594 L 97.082031 54.042969 Z M 96.121094 52.601562 L 96.226562 52.003906 L 97.441406 52.222656 L 97.332031 52.820312 Z M 96.324219 51.417969 L 96.414062 50.8125 L 97.632812 50.996094 L 97.542969 51.601562 Z M 96.496094 50.226562 L 96.566406 49.613281 L 97.792969 49.761719 L 97.71875 50.371094 Z M 96.628906 49.019531 L 96.6875 48.40625 L 97.914062 48.515625 L 97.859375 49.128906 Z M 96.730469 47.804688 L 96.769531 47.183594 L 98 47.257812 L 97.960938 47.878906 Z M 96.796875 46.578125 L 96.816406 45.953125 L 98.046875 45.992188 L 98.027344 46.617188 Z M 96.824219 45.34375 L 96.824219 44.71875 L 98.058594 44.714844 L 98.058594 45.003906 L 98.054688 45.347656 Z M 96.816406 44.105469 L 96.796875 43.480469 L 98.03125 43.445312 L 98.046875 44.070312 Z M 96.773438 42.875 L 96.734375 42.253906 L 97.964844 42.183594 L 98 42.804688 Z M 96.691406 41.65625 L 96.636719 41.039062 L 97.863281 40.929688 L 97.917969 41.546875 Z M 96.574219 40.445312 L 96.503906 39.835938 L 97.726562 39.691406 L 97.796875 40.300781 Z M 96.421875 39.246094 L 96.332031 38.640625 L 97.550781 38.460938 L 97.640625 39.0625 Z M 96.238281 38.054688 L 96.128906 37.457031 L 97.34375 37.242188 L 97.449219 37.839844 Z M 96.019531 36.878906 L 95.890625 36.273438 L 97.097656 36.019531 L 97.222656 36.625 Z M 95.757812 35.683594 L 95.613281 35.078125 L 96.808594 34.789062 L 96.957031 35.394531 Z M 95.460938 34.496094 L 95.296875 33.898438 L 96.488281 33.574219 L 96.648438 34.167969 Z M 95.132812 33.320312 L 94.949219 32.730469 L 96.128906 32.371094 L 96.308594 32.960938 Z M 94.765625 32.164062 L 94.570312 31.582031 L 95.734375 31.183594 L 95.933594 31.765625 Z M 94.371094 31.019531 L 94.15625 30.445312 L 95.308594 30.015625 L 95.523438 30.589844 Z M 93.941406 29.890625 L 93.707031 29.328125 L 94.851562 28.863281 L 95.082031 29.425781 Z M 93.476562 28.777344 L 93.222656 28.207031 L 94.351562 27.710938 L 94.601562 28.277344 Z M 92.972656 27.664062 L 92.707031 27.105469 L 93.816406 26.570312 L 94.082031 27.128906 Z M 92.4375 26.566406 L 92.15625 26.019531 L 93.25 25.453125 L 93.53125 26.003906 Z M 91.871094 25.492188 L 91.574219 24.953125 L 92.648438 24.355469 L 92.949219 24.894531 Z M 91.273438 24.433594 L 90.960938 23.90625 L 92.019531 23.277344 L 92.335938 23.804688 Z M 90.648438 23.398438 L 90.320312 22.878906 L 91.359375 22.21875 L 91.6875 22.734375 Z M 89.992188 22.378906 L 89.644531 21.871094 L 90.664062 21.179688 L 91.011719 21.6875 Z M 89.300781 21.378906 L 88.941406 20.878906 L 89.9375 20.15625 L 90.300781 20.65625 Z M 88.582031 20.398438 L 88.207031 19.90625 L 89.183594 19.15625 L 89.558594 19.644531 Z M 87.832031 19.433594 C 87.703125 19.277344 87.578125 19.121094 87.449219 18.964844 L 88.394531 18.175781 C 88.527344 18.339844 88.660156 18.5 88.792969 18.664062 Z M 87.054688 18.5 C 86.925781 18.34375 86.792969 18.191406 86.660156 18.039062 L 87.582031 17.226562 C 87.722656 17.382812 87.859375 17.539062 87.992188 17.699219 Z M 86.253906 17.585938 C 86.117188 17.4375 85.980469 17.289062 85.84375 17.140625 L 86.742188 16.300781 C 86.886719 16.453125 87.027344 16.605469 87.167969 16.757812 Z M 85.425781 16.699219 C 85.285156 16.554688 85.144531 16.410156 85 16.265625 L 85.875 15.398438 C 86.023438 15.546875 86.167969 15.695312 86.3125 15.84375 Z M 84.570312 15.835938 C 84.425781 15.695312 84.28125 15.554688 84.132812 15.414062 L 84.980469 14.523438 C 85.132812 14.667969 85.285156 14.8125 85.433594 14.957031 Z M 83.691406 15 C 83.542969 14.863281 83.390625 14.726562 83.242188 14.589844 L 84.0625 13.675781 C 84.21875 13.8125 84.371094 13.953125 84.527344 14.09375 Z M 82.785156 14.1875 C 82.632812 14.054688 82.480469 13.925781 82.324219 13.792969 L 83.121094 12.851562 C 83.277344 12.988281 83.4375 13.121094 83.59375 13.261719 Z M 81.859375 13.40625 C 81.699219 13.277344 81.542969 13.148438 81.382812 13.023438 L 82.152344 12.058594 C 82.316406 12.1875 82.476562 12.320312 82.636719 12.453125 Z M 80.910156 12.652344 L 80.417969 12.277344 L 81.164062 11.296875 L 81.65625 11.671875 Z M 79.933594 11.921875 L 79.433594 11.5625 L 80.148438 10.5625 L 80.652344 10.921875 Z M 78.9375 11.222656 L 78.429688 10.882812 L 79.113281 9.859375 L 79.625 10.199219 Z M 77.925781 10.558594 L 77.40625 10.230469 L 78.0625 9.1875 L 78.582031 9.511719 Z M 76.898438 9.921875 L 76.367188 9.609375 L 76.988281 8.546875 L 77.519531 8.859375 Z M 75.84375 9.3125 L 75.304688 9.019531 L 75.894531 7.9375 L 76.4375 8.234375 Z M 74.773438 8.738281 L 74.226562 8.457031 L 74.785156 7.359375 L 75.335938 7.640625 Z M 73.6875 8.195312 L 73.125 7.929688 L 73.652344 6.816406 L 74.210938 7.078125 Z M 72.578125 7.679688 L 72.011719 7.433594 L 72.503906 6.304688 L 73.070312 6.550781 Z M 71.460938 7.203125 L 70.894531 6.976562 L 71.351562 5.832031 L 71.917969 6.058594 Z M 70.339844 6.765625 L 69.761719 6.550781 L 70.1875 5.394531 L 70.761719 5.605469 Z M 69.199219 6.355469 L 68.617188 6.160156 L 69.003906 4.992188 L 69.589844 5.1875 Z M 68.046875 5.980469 L 67.457031 5.804688 L 67.808594 4.625 L 68.402344 4.800781 Z M 66.878906 5.640625 L 66.28125 5.480469 L 66.597656 4.289062 L 67.195312 4.449219 Z M 65.695312 5.332031 L 65.089844 5.191406 L 65.371094 3.992188 L 65.976562 4.132812 Z M 64.5 5.0625 L 63.898438 4.9375 L 64.144531 3.730469 L 64.746094 3.851562 Z M 63.316406 4.828125 L 62.71875 4.726562 L 62.925781 3.511719 L 63.527344 3.613281 Z M 62.132812 4.632812 L 61.527344 4.546875 L 61.699219 3.328125 L 62.304688 3.414062 Z M 60.9375 4.46875 L 60.324219 4.402344 L 60.460938 3.175781 L 61.074219 3.246094 Z M 59.726562 4.34375 L 59.113281 4.292969 L 59.214844 3.0625 L 59.832031 3.113281 Z M 58.511719 4.25 L 57.890625 4.21875 L 57.953125 2.988281 L 58.574219 3.019531 Z M 57.285156 4.195312 L 56.65625 4.179688 L 56.6875 2.949219 L 57.3125 2.964844 Z M 56.042969 4.175781 L 56 4.175781 L 55.375 4.179688 L 55.367188 2.949219 L 56 2.941406 L 56.042969 2.941406 Z M 56.042969 4.175781 " fill-opacity="1" fill-rule="nonzero"/></g></g><path fill="#fff5f5" d="M 53.011719 36.527344 C 53.359375 37.441406 53.765625 38.359375 54.199219 39.320312 C 54.917969 40.921875 55.65625 42.574219 56.105469 44.261719 C 56.535156 44.53125 56.996094 44.839844 57.484375 45.1875 C 57.121094 43.078125 56.191406 41.066406 55.28125 39.113281 C 54.800781 38.074219 54.347656 37.085938 53.976562 36.101562 C 53.664062 36.253906 53.34375 36.398438 53.011719 36.527344 Z M 53.011719 36.527344 " fill-opacity="1" fill-rule="nonzero"/><path fill="#fff5f5" d="M 61.679688 50.097656 C 58.226562 46.5 55.160156 44.695312 53.570312 43.914062 C 53.496094 44.203125 53.375 44.476562 53.195312 44.722656 C 53.101562 44.855469 53.039062 45.007812 52.996094 45.160156 L 56.140625 48.472656 C 56.140625 48.472656 56.140625 48.472656 56.140625 48.476562 L 68.078125 61.058594 C 67.140625 58.429688 65.105469 53.664062 61.679688 50.097656 Z M 61.679688 50.097656 " fill-opacity="1" fill-rule="nonzero"/><path fill="#fff5f5" d="M 64.082031 22.734375 C 64.097656 22.734375 64.113281 22.726562 64.128906 22.730469 C 64.132812 22.730469 64.132812 22.730469 64.132812 22.730469 C 64.699219 22.691406 65.28125 22.683594 65.890625 22.699219 C 65.902344 22.699219 65.910156 22.695312 65.921875 22.695312 C 65.929688 22.699219 65.933594 22.703125 65.941406 22.703125 C 66.277344 22.714844 66.613281 22.726562 66.960938 22.753906 C 67.152344 22.769531 67.339844 22.785156 67.523438 22.808594 C 67.507812 22.117188 67.261719 21.710938 67.125 21.6875 C 64.152344 21.4375 61.097656 22.09375 58.460938 23.523438 C 58.5625 23.765625 58.652344 24.007812 58.734375 24.25 C 60.273438 23.375 62.039062 22.875 64.082031 22.734375 Z M 64.082031 22.734375 " fill-opacity="1" fill-rule="nonzero"/><path fill="#fff5f5" d="M 67.222656 20.75 C 67.226562 20.75 67.230469 20.75 67.234375 20.75 C 67.234375 20.75 67.238281 20.75 67.242188 20.75 C 68.105469 20.859375 68.617188 22.007812 68.4375 23.417969 C 68.265625 24.757812 67.546875 25.707031 66.738281 25.707031 C 66.695312 25.707031 66.652344 25.703125 66.605469 25.699219 C 65.867188 25.605469 65.390625 24.769531 65.378906 23.636719 C 65.09375 23.636719 64.804688 23.636719 64.53125 23.648438 L 62.507812 49.601562 C 62.921875 50.039062 63.320312 50.496094 63.691406 50.960938 C 64.589844 46.679688 68.097656 29.847656 69.371094 22.566406 C 69.496094 21.859375 69.296875 21.140625 68.828125 20.601562 C 68.351562 20.058594 67.660156 19.75 66.949219 19.785156 C 66.230469 19.8125 65.574219 20.167969 65.148438 20.71875 C 65.839844 20.6875 66.53125 20.691406 67.222656 20.75 Z M 67.222656 20.75 " fill-opacity="1" fill-rule="nonzero"/><path fill="#fff5f5" d="M 74.691406 27.320312 C 75.335938 28.238281 75.941406 29.109375 76.835938 29.671875 C 78.175781 30.515625 79.328125 30.582031 80.257812 30.632812 C 81.226562 30.691406 82.230469 30.746094 82.410156 32.035156 C 82.582031 33.257812 81.203125 34.027344 79.605469 34.917969 C 78.242188 35.679688 76.699219 36.539062 75.984375 37.746094 C 74.863281 39.636719 75.949219 41.65625 76.445312 42.410156 L 77.070312 42.09375 C 76.648438 41.433594 76.410156 40.738281 76.371094 40.023438 C 76.355469 39.761719 76.554688 39.539062 76.816406 39.523438 C 77.074219 39.507812 77.300781 39.710938 77.3125 39.96875 C 77.347656 40.558594 77.554688 41.113281 77.921875 41.664062 L 78.664062 41.289062 C 78.199219 40.609375 77.53125 39.320312 78.082031 38.101562 C 78.460938 37.265625 79.453125 36.539062 80.503906 35.765625 C 82.210938 34.507812 83.976562 33.210938 83.460938 31.425781 C 83.097656 30.167969 82.136719 29.996094 80.597656 29.824219 C 79.644531 29.714844 78.660156 29.605469 77.796875 29.082031 C 77.148438 28.6875 76.511719 27.925781 75.773438 27.046875 C 74.464844 25.480469 72.851562 23.570312 70.332031 22.488281 C 70.324219 22.570312 70.316406 22.648438 70.304688 22.730469 C 70.265625 22.949219 70.222656 23.179688 70.179688 23.417969 C 72.59375 24.316406 73.707031 25.90625 74.691406 27.320312 Z M 74.691406 27.320312 " fill-opacity="1" fill-rule="nonzero"/><path fill="#fff5f5" d="M 56.730469 50.46875 L 55.921875 49.621094 C 55.644531 50.078125 55.265625 50.507812 54.789062 50.921875 L 55.179688 51.996094 C 55.839844 51.511719 56.351562 51.007812 56.730469 50.46875 Z M 56.730469 50.46875 " fill-opacity="1" fill-rule="nonzero"/><path fill="#fff5f5" d="M 45.058594 39.097656 C 45.132812 38.964844 45.269531 38.878906 45.417969 38.863281 C 45.574219 38.847656 45.722656 38.910156 45.820312 39.023438 L 47.402344 40.828125 L 45.34375 35.789062 L 35.722656 25.359375 C 35.097656 24.679688 34.089844 24.535156 33.328125 25.019531 C 30.070312 27.085938 27.941406 30.09375 27.488281 33.28125 C 27.085938 36.085938 27.972656 38.820312 30.050781 41.183594 C 32.128906 43.546875 34.808594 44.695312 37.589844 44.421875 C 40.546875 44.128906 43.269531 42.1875 45.058594 39.097656 Z M 37.558594 42.972656 C 37.203125 43.023438 36.847656 43.046875 36.5 43.046875 C 34.332031 43.046875 32.269531 42.085938 30.71875 40.324219 C 29.011719 38.378906 28.378906 35.769531 28.945312 32.976562 C 29.546875 30.003906 31.457031 27.347656 33.8125 26.210938 C 34.003906 26.117188 34.230469 26.160156 34.371094 26.316406 L 44.132812 37.152344 C 44.261719 37.292969 44.289062 37.492188 44.210938 37.664062 C 42.855469 40.582031 40.367188 42.566406 37.558594 42.972656 Z M 37.558594 42.972656 " fill-opacity="1" fill-rule="nonzero"/><path fill="#fff5f5" d="M 82.386719 65.945312 C 83.207031 66.039062 84.046875 66.378906 84.695312 66.859375 C 84.808594 66.472656 84.90625 66.09375 84.972656 65.722656 C 83.773438 65.265625 79.570312 63.839844 75.285156 64.597656 C 73.316406 64.941406 70.847656 66.070312 68.234375 67.261719 C 63.878906 69.253906 58.941406 71.5 53.96875 71.4375 C 50.003906 71.378906 46.664062 70.066406 44.570312 67.742188 C 42.871094 65.855469 42.101562 63.441406 42.339844 60.757812 C 42.628906 57.558594 46.269531 56.082031 49.789062 54.660156 C 50.042969 54.554688 50.296875 54.453125 50.550781 54.347656 C 50.453125 54.046875 50.367188 53.753906 50.28125 53.460938 C 49.988281 53.589844 49.695312 53.71875 49.398438 53.847656 C 45.777344 55.402344 42.03125 57.011719 41.292969 60.507812 C 40.59375 63.816406 41.96875 66.371094 43.246094 67.933594 C 45.6875 70.921875 49.957031 72.910156 53.832031 72.875 C 58.734375 72.835938 63.988281 70.644531 68.210938 68.882812 C 70.972656 67.730469 73.359375 66.734375 75.09375 66.550781 C 78.765625 66.164062 82.519531 68.332031 83.804688 69.164062 C 84.027344 68.710938 84.210938 68.261719 84.375 67.816406 C 83.851562 67.335938 83.042969 66.972656 82.277344 66.882812 C 82.015625 66.855469 81.832031 66.617188 81.859375 66.359375 C 81.890625 66.101562 82.125 65.917969 82.386719 65.945312 Z M 82.386719 65.945312 " fill-opacity="1" fill-rule="nonzero"/><g clip-path="url(#06e345115c)"><path fill="#fff5f5" d="M 50.019531 44.734375 C 50.050781 44.804688 50.058594 44.886719 50.050781 44.964844 C 50.046875 45.007812 49.609375 49.46875 52.179688 56.140625 C 53.988281 60.824219 57.519531 64.734375 59.484375 66.671875 L 52.125 46.335938 C 52.003906 45.996094 51.964844 45.636719 52.003906 45.289062 C 52.003906 45.285156 52.003906 45.285156 52.003906 45.285156 C 52.046875 44.886719 52.191406 44.503906 52.429688 44.167969 C 52.667969 43.84375 52.75 43.433594 52.660156 43.042969 L 52.125 40.699219 C 52.050781 40.378906 51.785156 40.140625 51.457031 40.101562 C 50.609375 40.003906 49.878906 39.453125 49.546875 38.667969 L 48.875 37.074219 C 48.8125 36.933594 48.824219 36.777344 48.902344 36.644531 C 48.980469 36.515625 49.117188 36.433594 49.269531 36.417969 C 52.824219 36.113281 55.734375 34.46875 57.253906 31.914062 C 58.683594 29.507812 58.777344 26.597656 57.519531 23.714844 C 56.257812 20.828125 54.160156 18.867188 51.449219 18.039062 C 48.371094 17.101562 44.742188 17.753906 41.492188 19.828125 C 40.730469 20.3125 40.429688 21.285156 40.78125 22.140625 Z M 49.875 40.820312 C 50.320312 40.535156 50.910156 40.667969 51.195312 41.113281 C 51.476562 41.558594 51.347656 42.148438 50.902344 42.429688 C 50.457031 42.714844 49.867188 42.582031 49.582031 42.136719 C 49.300781 41.691406 49.429688 41.101562 49.875 40.820312 Z M 42.359375 20.773438 C 44.390625 19.121094 47.609375 18.519531 50.554688 19.234375 C 53.324219 19.90625 55.421875 21.582031 56.457031 23.953125 C 56.808594 24.761719 57.027344 25.589844 57.117188 26.410156 C 57.117188 26.421875 57.117188 26.433594 57.117188 26.445312 C 57.292969 28.148438 56.902344 29.828125 55.953125 31.269531 C 55.421875 32.082031 54.734375 32.777344 53.9375 33.34375 C 53.921875 33.355469 53.90625 33.371094 53.886719 33.382812 C 53.296875 33.796875 52.640625 34.140625 51.941406 34.40625 C 51.910156 34.417969 51.882812 34.4375 51.847656 34.441406 C 51.847656 34.441406 51.847656 34.441406 51.84375 34.441406 C 50.773438 34.835938 49.59375 35.046875 48.359375 35.046875 C 48.160156 35.046875 47.972656 34.941406 47.894531 34.757812 L 42.222656 21.324219 C 42.140625 21.128906 42.199219 20.90625 42.359375 20.773438 Z M 42.359375 20.773438 " fill-opacity="1" fill-rule="nonzero"/></g><path fill="#fff5f5" d="M 52.53125 29.929688 C 52.121094 30.960938 51.992188 32.070312 52.140625 33.300781 C 52.507812 33.128906 52.863281 32.9375 53.195312 32.714844 C 53.136719 31.453125 53.402344 30.3125 54.011719 29.234375 C 54.667969 28.078125 55.367188 27.117188 56.140625 26.296875 C 56.089844 25.953125 56.023438 25.605469 55.921875 25.261719 C 54.394531 26.582031 53.226562 28.179688 52.53125 29.929688 Z M 52.53125 29.929688 " fill-opacity="1" fill-rule="nonzero"/></svg>